<?xml version="1.0" encoding="utf-8"?>
<!-- Generator: Adobe Illustrator 27.9.0, SVG Export Plug-In . SVG Version: 6.00 Build 0)  -->
<svg version="1.1" id="Layer_1" xmlns="http://www.w3.org/2000/svg" xmlns:xlink="http://www.w3.org/1999/xlink" x="0px" y="0px"
	 width="331.4px" height="108.2px" viewBox="0 0 331.4 108.2" style="enable-background:new 0 0 331.4 108.2;" xml:space="preserve"
     fill="#FFFFFF"
	>
<path d="M324.7,102.4h-1.3c-104.2,0-208.4,0-312.6,0c-1.1,0-1.4-0.2-1.4-1.4c0-31.2,0-62.5,0-93.7c0-0.9,0.2-1.4,1.2-1.2
	c0.3,0,0.6,0,0.8,0c103.8,0,207.6,0,311.4,0h1.9C324.7,6.1,324.7,102.4,324.7,102.4z M97.7,62.9c2.1,0,4,0,5.9,0
	c0.9,0,1.4,0.3,1.8,1.1c3.3,6.6,6.6,13.1,9.8,19.7c0.4,0.8,0.8,1,1.6,1c5,0,9.9,0,14.9,0c0.3,0,0.6,0,1.1,0
	c-4.6-8.7-9.2-17.2-13.8-25.8c0.3-0.2,0.4-0.3,0.6-0.4C127.7,54.1,131,48.1,130,39c-0.5-4.3-2.5-7.9-6-10.5
	c-4.1-3.1-8.8-4.6-13.7-4.7c-9.2-0.2-18.5-0.2-27.7-0.2c-0.3,0-0.6,0-0.9,0v60.9h16.1V62.7L97.7,62.9z M173.7,23.7c0,0.5,0,1,0,1.4
	c0,12,0,24.1,0,36.1c0,1.5,0,3-0.2,4.5c-0.3,3.6-2.1,6.2-5.6,7.1c-1.8,0.5-3.8,0.6-5.7,0.4c-4.5-0.5-6.9-2.8-7.6-7.3
	c-0.3-1.9-0.4-3.8-0.4-5.7c0-11.8,0-23.5,0-35.3c0-0.4,0-0.8,0-1.3c-0.3,0-0.4,0-0.6-0.1c-4.9,0-9.8,0-14.6,0
	c-0.9,0-0.9,0.5-0.9,1.1c0,10.6,0,21.2,0,31.8c0,3.2,0,6.4,0.2,9.6c0.5,8.6,5.8,15.4,13.9,18.1c7.1,2.3,14.2,2.4,21.4,0.5
	c10.2-2.7,15.9-10.2,16-20.8c0-13.2,0-26.3,0-39.5c0-0.3,0-0.5,0-0.8h-15.8L173.7,23.7z M196.2,67.2c0.4,9,5.1,15,13.5,17.4
	c6.5,1.8,13.1,1.9,19.7,0.7c4.3-0.7,8.3-2.3,11.5-5.2c5.6-5.1,6.9-11.6,5.8-18.7c-0.9-6.2-4.9-10.1-10.6-12
	c-3.8-1.3-7.8-1.8-11.8-2.7c-2.4-0.6-4.8-1.1-7.1-1.9c-1.9-0.7-2.7-2.4-2.8-4.5c0-2.1,0.8-3.7,2.6-4.8c4.9-2.9,10.5-0.6,11.9,4.9
	h16.4c0-7.4-4.3-13.3-11.4-15.7c-5.8-2-11.8-2.2-17.8-1.4c-3.9,0.5-7.6,1.7-10.9,4.1c-5.5,3.9-7.8,9.4-7.5,16
	c0.2,5.9,2.7,10.5,7.7,13.7c3.3,2.1,7.1,2.9,10.8,3.6c3.2,0.6,6.5,1.3,9.7,2.1c2.4,0.6,4.1,2.1,4.3,4.8c0.2,2.7-1,4.7-3.4,6
	c-2.5,1.2-5.1,1.4-7.7,0.8c-3.3-0.7-5.4-2.8-6-6.1c-0.2-0.9-0.6-1.1-1.3-1.1c-4.7,0-9.4,0-14.2,0c-0.5,0-0.9,0-1.5,0L196.2,67.2z
	 M267.7,73.7c6.9,0,13.8,0,20.6,0c0.3,0,0.8,0.5,0.9,0.8c1,3,2,6.1,2.9,9.1c0.2,0.8,0.6,1.1,1.4,1c4.7,0,9.4,0,14,0c0.5,0,1,0,1.7,0
	c-7.2-20.5-14.3-40.8-21.4-61.1c-4.7,0-9.4,0-14.1,0c-1.2,0-2.8-0.4-3.6,0.2c-0.8,0.6-1,2.2-1.4,3.3c-6.5,18.7-13,37.5-19.5,56.2
	c-0.1,0.4-0.2,0.8-0.4,1.3c4.9,0,9.7,0,14.5,0c0.3,0,0.8-0.5,0.9-0.9c1.1-3.3,2.2-6.7,3.3-10.1L267.7,73.7z M43.4,65.1
	c1.4,0,2.7,0,3.9,0c4.6,0,9.1-0.3,13.5-1.7c6-1.9,10.4-5.5,12.6-11.5c1.2-3.6,1.5-7.3,1.1-11c-0.7-6.6-3.9-11.5-9.9-14.4
	c-4.3-2.1-9-2.8-13.7-2.8c-7.4,0-14.8,0-22.2,0c-0.4,0-0.8,0-1.3,0v60.9h16.1L43.4,65.1L43.4,65.1z"/>
<path d="M97.8,34.3c3.6,0.3,7.1-0.5,10.6,0.7c3.2,1.1,5.2,3.5,5.4,6.9c0,1.1,0,2.3-0.1,3.3c-0.8,3.9-3.3,6.2-7.6,6.6
	c-2.7,0.2-5.4,0-8.2,0V34.3H97.8z"/>
<path d="M278.4,37.9c2.2,7.8,4.5,16,6.8,24.2h-13.7C273.9,53.8,276.2,45.6,278.4,37.9L278.4,37.9z"/>
<path d="M43.5,53.6v-19c3.4,0.2,6.8,0.2,10.1,0.7c2.7,0.4,4.5,2.5,4.9,5.1c0.3,2.3,0.3,4.7,0,7c-0.5,3.1-2.6,5.2-5.7,5.7
	C49.8,53.5,46.7,53.4,43.5,53.6L43.5,53.6z"/>
</svg>
